P1
# QuickDraw 8x8 pattern
8 8
0 0 0 0 0 0 0 0
0 0 0 0 1 0 0 0
0 0 0 1 0 1 0 0
0 0 1 0 1 0 1 0
0 1 0 1 0 1 0 1
0 0 1 0 1 0 1 0
0 0 0 1 0 1 0 0
0 0 0 0 1 0 0 0
