P1
8 304
1 1 1 1 1 1 1 1 
1 1 1 1 1 1 1 1 
1 1 1 1 1 1 1 1 
1 1 1 1 1 1 1 1 
1 1 1 1 1 1 1 1 
1 1 1 1 1 1 1 1 
1 1 1 1 1 1 1 1 
1 1 1 1 1 1 1 1 
1 1 0 1 1 1 0 1 
1 1 1 1 1 1 1 1 
0 1 1 1 0 1 1 1 
1 1 1 1 1 1 1 1 
1 1 0 1 1 1 0 1 
1 1 1 1 1 1 1 1 
0 1 1 1 0 1 1 1 
1 1 1 1 1 1 1 1 
1 1 0 1 1 1 0 1 
0 1 1 1 0 1 1 1 
1 1 0 1 1 1 0 1 
0 1 1 1 0 1 1 1 
1 1 0 1 1 1 0 1 
0 1 1 1 0 1 1 1 
1 1 0 1 1 1 0 1 
0 1 1 1 0 1 1 1 
1 0 1 0 1 0 1 0 
0 1 0 1 0 1 0 1 
1 0 1 0 1 0 1 0 
0 1 0 1 0 1 0 1 
1 0 1 0 1 0 1 0 
0 1 0 1 0 1 0 1 
1 0 1 0 1 0 1 0 
0 1 0 1 0 1 0 1 
0 1 0 1 0 1 0 1 
1 1 1 1 1 1 1 1 
0 1 0 1 0 1 0 1 
1 1 1 1 1 1 1 1 
0 1 0 1 0 1 0 1 
1 1 1 1 1 1 1 1 
0 1 0 1 0 1 0 1 
1 1 1 1 1 1 1 1 
1 0 1 0 1 0 1 0 
1 0 1 0 1 0 1 0 
1 0 1 0 1 0 1 0 
1 0 1 0 1 0 1 0 
1 0 1 0 1 0 1 0 
1 0 1 0 1 0 1 0 
1 0 1 0 1 0 1 0 
1 0 1 0 1 0 1 0 
1 1 1 0 1 1 1 0 
1 1 0 1 1 1 0 1 
1 0 1 1 1 0 1 1 
0 1 1 1 0 1 1 1 
1 1 1 0 1 1 1 0 
1 1 0 1 1 1 0 1 
1 0 1 1 1 0 1 1 
0 1 1 1 0 1 1 1 
1 0 0 0 1 0 0 0 
1 0 0 0 1 0 0 0 
1 0 0 0 1 0 0 0 
1 0 0 0 1 0 0 0 
1 0 0 0 1 0 0 0 
1 0 0 0 1 0 0 0 
1 0 0 0 1 0 0 0 
1 0 0 0 1 0 0 0 
1 0 1 1 0 0 0 1 
0 0 1 1 0 0 0 0 
0 0 0 0 0 0 1 1 
0 0 0 1 1 0 1 1 
1 1 0 1 1 0 0 0 
1 1 0 0 0 0 0 0 
0 0 0 0 1 1 0 0 
1 0 0 0 1 1 0 1 
1 0 0 0 0 0 0 0 
0 0 0 1 0 0 0 0 
0 0 0 0 0 0 1 0 
0 0 1 0 0 0 0 0 
0 0 0 0 0 0 0 1 
0 0 0 0 1 0 0 0 
0 1 0 0 0 0 0 0 
0 0 0 0 0 1 0 0 
1 1 1 1 1 1 1 1 
1 0 0 0 1 0 0 0 
1 0 0 0 1 0 0 0 
1 0 0 0 1 0 0 0 
1 1 1 1 1 1 1 1 
1 0 0 0 1 0 0 0 
1 0 0 0 1 0 0 0 
1 0 0 0 1 0 0 0 
1 1 1 1 1 1 1 1 
1 0 0 0 0 0 0 0 
1 0 0 0 0 0 0 0 
1 0 0 0 0 0 0 0 
1 1 1 1 1 1 1 1 
0 0 0 0 1 0 0 0 
0 0 0 0 1 0 0 0 
0 0 0 0 1 0 0 0 
1 0 0 0 0 0 0 0 
0 0 0 0 0 0 0 0 
0 0 0 0 0 0 0 0 
0 0 0 0 0 0 0 0 
0 0 0 0 0 0 0 0 
0 0 0 0 0 0 0 0 
0 0 0 0 0 0 0 0 
0 0 0 0 0 0 0 0 
1 0 0 0 0 0 0 0 
0 1 0 0 0 0 0 0 
0 0 1 0 0 0 0 0 
0 0 0 0 0 0 0 0 
0 0 0 0 0 0 1 0 
0 0 0 0 0 1 0 0 
0 0 0 0 1 0 0 0 
0 0 0 0 0 0 0 0 
1 0 0 0 0 0 1 0 
0 1 0 0 0 1 0 0 
0 0 1 1 1 0 0 1 
0 1 0 0 0 1 0 0 
1 0 0 0 0 0 1 0 
0 0 0 0 0 0 0 1 
0 0 0 0 0 0 0 1 
0 0 0 0 0 0 0 1 
1 1 1 1 1 0 0 0 
0 1 1 1 0 1 0 0 
0 0 1 0 0 0 1 0 
0 1 0 0 0 1 1 1 
1 0 0 0 1 1 1 1 
0 0 0 1 0 1 1 1 
0 0 1 0 0 0 1 0 
0 1 1 1 0 0 0 1 
0 1 0 1 0 1 0 1 
1 0 1 0 0 0 0 0 
0 1 0 0 0 0 0 0 
0 1 0 0 0 0 0 0 
0 1 0 1 0 1 0 1 
0 0 0 0 1 0 1 0 
0 0 0 0 0 1 0 0 
0 0 0 0 0 1 0 0 
0 0 1 0 0 0 0 0 
0 1 0 1 0 0 0 0 
1 0 0 0 1 0 0 0 
1 0 0 0 1 0 0 0 
1 0 0 0 1 0 0 0 
1 0 0 0 1 0 0 0 
0 0 0 0 0 1 0 1 
0 0 0 0 0 0 1 0 
1 0 1 1 1 1 1 1 
0 0 0 0 0 0 0 0 
1 0 1 1 1 1 1 1 
1 0 1 1 1 1 1 1 
1 0 1 1 0 0 0 0 
1 0 1 1 0 0 0 0 
1 0 1 1 0 0 0 0 
1 0 1 1 0 0 0 0 
0 0 0 0 0 0 0 0 
0 0 0 0 0 0 0 0 
0 0 0 0 0 0 0 0 
0 0 0 0 0 0 0 0 
0 0 0 0 0 0 0 0 
0 0 0 0 0 0 0 0 
0 0 0 0 0 0 0 0 
0 0 0 0 0 0 0 0 
1 0 0 0 0 0 0 0 
0 0 0 0 0 0 0 0 
0 0 0 0 1 0 0 0 
0 0 0 0 0 0 0 0 
1 0 0 0 0 0 0 0 
0 0 0 0 0 0 0 0 
0 0 0 0 1 0 0 0 
0 0 0 0 0 0 0 0 
1 0 0 0 1 0 0 0 
0 0 0 0 0 0 0 0 
0 0 1 0 0 0 1 0 
0 0 0 0 0 0 0 0 
1 0 0 0 1 0 0 0 
0 0 0 0 0 0 0 0 
0 0 1 0 0 0 1 0 
0 0 0 0 0 0 0 0 
1 0 0 0 1 0 0 0 
0 0 1 0 0 0 1 0 
1 0 0 0 1 0 0 0 
0 0 1 0 0 0 1 0 
1 0 0 0 1 0 0 0 
0 0 1 0 0 0 1 0 
1 0 0 0 1 0 0 0 
0 0 1 0 0 0 1 0 
1 0 1 0 1 0 1 0 
0 0 0 0 0 0 0 0 
1 0 1 0 1 0 1 0 
0 0 0 0 0 0 0 0 
1 0 1 0 1 0 1 0 
0 0 0 0 0 0 0 0 
1 0 1 0 1 0 1 0 
0 0 0 0 0 0 0 0 
1 1 1 1 1 1 1 1 
0 0 0 0 0 0 0 0 
1 1 1 1 1 1 1 1 
0 0 0 0 0 0 0 0 
1 1 1 1 1 1 1 1 
0 0 0 0 0 0 0 0 
1 1 1 1 1 1 1 1 
0 0 0 0 0 0 0 0 
0 0 0 1 0 0 0 1 
0 0 1 0 0 0 1 0 
0 1 0 0 0 1 0 0 
1 0 0 0 1 0 0 0 
0 0 0 1 0 0 0 1 
0 0 1 0 0 0 1 0 
0 1 0 0 0 1 0 0 
1 0 0 0 1 0 0 0 
1 1 1 1 1 1 1 1 
0 0 0 0 0 0 0 0 
0 0 0 0 0 0 0 0 
0 0 0 0 0 0 0 0 
1 1 1 1 1 1 1 1 
0 0 0 0 0 0 0 0 
0 0 0 0 0 0 0 0 
0 0 0 0 0 0 0 0 
0 0 0 0 0 0 0 1 
0 0 0 0 0 0 1 0 
0 0 0 0 0 1 0 0 
0 0 0 0 1 0 0 0 
0 0 0 1 0 0 0 0 
0 0 1 0 0 0 0 0 
0 1 0 0 0 0 0 0 
1 0 0 0 0 0 0 0 
1 0 1 0 1 0 1 0 
0 0 0 0 0 0 0 0 
1 0 0 0 0 0 0 0 
0 0 0 0 0 0 0 0 
1 0 0 0 1 0 0 0 
0 0 0 0 0 0 0 0 
1 0 0 0 0 0 0 0 
0 0 0 0 0 0 0 0 
1 1 1 1 1 1 1 1 
1 0 0 0 0 0 0 0 
1 0 0 0 0 0 0 0 
1 0 0 0 0 0 0 0 
1 0 0 0 0 0 0 0 
1 0 0 0 0 0 0 0 
1 0 0 0 0 0 0 0 
1 0 0 0 0 0 0 0 
0 0 0 0 1 0 0 0 
0 0 0 1 1 1 0 0 
0 0 1 0 0 0 1 0 
1 1 0 0 0 0 0 1 
1 0 0 0 0 0 0 0 
0 0 0 0 0 0 0 1 
0 0 0 0 0 0 1 0 
0 0 0 0 0 1 0 0 
1 0 0 0 1 0 0 0 
0 0 0 1 0 1 0 0 
0 0 1 0 0 0 1 0 
0 1 0 0 0 0 0 1 
1 0 0 0 1 0 0 0 
0 0 0 0 0 0 0 0 
1 0 1 0 1 0 1 0 
0 0 0 0 0 0 0 0 
0 1 0 0 0 0 0 0 
1 0 1 0 0 0 0 0 
0 0 0 0 0 0 0 0 
0 0 0 0 0 0 0 0 
0 0 0 0 0 1 0 0 
0 0 0 0 1 0 1 0 
0 0 0 0 0 0 0 0 
0 0 0 0 0 0 0 0 
0 0 0 0 0 0 1 1 
1 0 0 0 0 1 0 0 
0 1 0 0 1 0 0 0 
0 0 1 1 0 0 0 0 
0 0 0 0 1 1 0 0 
0 0 0 0 0 0 1 0 
0 0 0 0 0 0 0 1 
0 0 0 0 0 0 0 1 
1 0 0 0 0 0 0 0 
1 0 0 0 0 0 0 0 
0 1 0 0 0 0 0 1 
0 0 1 1 1 1 1 0 
0 0 0 0 1 0 0 0 
0 0 0 0 1 0 0 0 
0 0 0 1 0 1 0 0 
1 1 1 0 0 0 1 1 
0 0 0 1 0 0 0 0 
0 0 1 0 0 0 0 0 
0 1 0 1 0 1 0 0 
1 0 1 0 1 0 1 0 
1 1 1 1 1 1 1 1 
0 0 0 0 0 0 1 0 
0 0 0 0 0 1 0 0 
0 0 0 0 1 0 0 0 
0 1 1 1 0 1 1 1 
1 0 0 0 1 0 0 1 
1 0 0 0 1 1 1 1 
1 0 0 0 1 1 1 1 
0 1 1 1 0 1 1 1 
1 0 0 1 1 0 0 0 
1 1 1 1 1 0 0 0 
1 1 1 1 1 0 0 0 
0 0 0 0 0 0 0 0 
0 0 0 0 1 0 0 0 
0 0 0 1 0 1 0 0 
0 0 1 0 1 0 1 0 
0 1 0 1 0 1 0 1 
0 0 1 0 1 0 1 0 
0 0 0 1 0 1 0 0 
0 0 0 0 1 0 0 0 
